<svg width="60" height="60" viewBox="0 0 60 60" fill="none" xmlns="http://www.w3.org/2000/svg">
<rect width="60" height="60" rx="11" fill="#DEF2E6"/>
<path d="M27.1094 31.9791L28.3855 27.8229L25.0313 25.125H29.1875L30.5 21.0416L31.8125 25.125H35.9688L32.5782 27.8229L33.8542 31.9791L30.5 29.3906L27.1094 31.9791ZM21.75 45.5416V34.276C20.8264 33.2552 20.1094 32.0885 19.599 30.776C19.0886 29.4635 18.8334 28.0659 18.8334 26.5833C18.8334 23.3263 19.9636 20.5677 22.224 18.3073C24.4844 16.0468 27.2431 14.9166 30.5 14.9166C33.757 14.9166 36.5157 16.0468 38.7761 18.3073C41.0365 20.5677 42.1667 23.3263 42.1667 26.5833C42.1667 28.0659 41.9115 29.4635 41.4011 30.776C40.8907 32.0885 40.1737 33.2552 39.25 34.276V45.5416L30.5 42.625L21.75 45.5416ZM30.5 35.3333C32.9306 35.3333 34.9966 34.4826 36.698 32.7812C38.3993 31.0798 39.25 29.0138 39.25 26.5833C39.25 24.1527 38.3993 22.0868 36.698 20.3854C34.9966 18.684 32.9306 17.8333 30.5 17.8333C28.0695 17.8333 26.0035 18.684 24.3021 20.3854C22.6007 22.0868 21.75 24.1527 21.75 26.5833C21.75 29.0138 22.6007 31.0798 24.3021 32.7812C26.0035 34.4826 28.0695 35.3333 30.5 35.3333ZM24.6667 41.2031L30.5 39.7083L36.3334 41.2031V36.6823C35.4827 37.1684 34.5649 37.5514 33.58 37.8314C32.5952 38.1114 31.5685 38.2509 30.5 38.25C29.4306 38.25 28.4034 38.11 27.4186 37.83C26.4337 37.55 25.5164 37.1679 24.6667 36.6837V41.2031Z" fill="#1A4732"/>
</svg>
