<svg width="60" height="60" viewBox="0 0 60 60" fill="none" xmlns="http://www.w3.org/2000/svg">
<rect width="60" height="60" rx="11" fill="#DEF2E6"/>
<path d="M29.0416 41.1667H18.8333C18.0312 41.1667 17.3448 40.8814 16.7741 40.3107C16.2034 39.74 15.9176 39.0531 15.9166 38.25V20.75C15.9166 19.948 16.2025 19.2616 16.7741 18.6909C17.3458 18.1202 18.0322 17.8343 18.8333 17.8334H42.1666C42.9687 17.8334 43.6556 18.1192 44.2272 18.6909C44.7989 19.2625 45.0843 19.9489 45.0833 20.75V26.5834C45.0833 26.9966 44.9433 27.3432 44.6633 27.6232C44.3833 27.9032 44.0372 28.0427 43.625 28.0417C43.2118 28.0417 42.8657 27.9017 42.5866 27.6217C42.3076 27.3417 42.1676 26.9956 42.1666 26.5834V20.75H18.8333V38.25H29.0416C29.4548 38.25 29.8014 38.39 30.0814 38.67C30.3614 38.95 30.5009 39.2962 30.5 39.7084C30.5 40.1216 30.36 40.4682 30.08 40.7482C29.8 41.0282 29.4538 41.1677 29.0416 41.1667ZM26.8541 34.0573V24.9427C26.8541 24.5052 27.0427 24.183 27.42 23.9759C27.7972 23.7688 28.1676 23.7873 28.5312 24.0313L35.6406 28.5886C35.9809 28.8073 36.151 29.1112 36.151 29.5C36.151 29.8889 35.9809 30.1927 35.6406 30.4115L28.5312 34.9688C28.1666 35.2118 27.7957 35.2303 27.4185 35.0242C27.0413 34.8181 26.8532 34.4958 26.8541 34.0573ZM38.9218 44.9584L38.5937 43.3542C38.302 43.2327 38.0284 43.1053 37.7727 42.9721C37.517 42.8389 37.2559 42.6746 36.9895 42.4792L35.4218 42.9532C35.2517 43.0018 35.0937 42.9959 34.9479 42.9357C34.802 42.8754 34.6805 42.7718 34.5833 42.625L33.7083 41.1667C33.6111 41.0209 33.5868 40.8629 33.6354 40.6927C33.684 40.5226 33.7691 40.3768 33.8906 40.2552L35.0937 39.198C35.0451 38.8577 35.0208 38.5417 35.0208 38.25C35.0208 37.9584 35.0451 37.6424 35.0937 37.3021L33.8906 36.2448C33.7691 36.1233 33.684 35.9775 33.6354 35.8073C33.5868 35.6372 33.6111 35.4792 33.7083 35.3334L34.5833 33.875C34.6805 33.7292 34.802 33.6262 34.9479 33.5659C35.0937 33.5056 35.2517 33.4993 35.4218 33.5469L36.9895 34.0209C37.2569 33.8264 37.5184 33.6626 37.7741 33.5294C38.0298 33.3962 38.303 33.2684 38.5937 33.1459L38.9218 31.5417C38.9704 31.3716 39.0497 31.2316 39.1595 31.1217C39.2694 31.0118 39.4211 30.9574 39.6145 30.9584H41.3645C41.559 30.9584 41.7111 31.0133 41.821 31.1232C41.9309 31.233 42.0096 31.3725 42.0572 31.5417L42.3854 33.1459C42.677 33.2674 42.9507 33.4011 43.2064 33.5469C43.4621 33.6927 43.7232 33.875 43.9895 34.0938L45.5208 33.5469C45.6909 33.4983 45.8552 33.5046 46.0137 33.5659C46.1722 33.6271 46.2995 33.7302 46.3958 33.875L47.2708 35.4063C47.368 35.5521 47.3986 35.7101 47.3627 35.8802C47.3267 36.0504 47.2475 36.1962 47.125 36.3177L45.8854 37.375C45.934 37.6667 45.9583 37.9705 45.9583 38.2865C45.9583 38.6025 45.934 38.9063 45.8854 39.198L47.0885 40.2552C47.21 40.3768 47.2951 40.5226 47.3437 40.6927C47.3923 40.8629 47.368 41.0209 47.2708 41.1667L46.3958 42.625C46.2986 42.7709 46.177 42.8744 46.0312 42.9357C45.8854 42.9969 45.7274 43.0028 45.5573 42.9532L43.9895 42.4792C43.7222 42.6737 43.4611 42.838 43.2064 42.9721C42.9517 43.1063 42.678 43.2337 42.3854 43.3542L42.0572 44.9584C42.0086 45.1285 41.9299 45.2685 41.821 45.3784C41.7121 45.4882 41.56 45.5427 41.3645 45.5417H39.6145C39.4201 45.5417 39.2684 45.4873 39.1595 45.3784C39.0507 45.2695 38.9714 45.1295 38.9218 44.9584ZM40.4895 41.1667C41.2916 41.1667 41.9785 40.8814 42.5502 40.3107C43.1218 39.74 43.4072 39.0531 43.4062 38.25C43.4062 37.448 43.1209 36.7616 42.5502 36.1909C41.9795 35.6202 41.2926 35.3343 40.4895 35.3334C39.6875 35.3334 39.0011 35.6192 38.4304 36.1909C37.8597 36.7625 37.5738 37.4489 37.5729 38.25C37.5729 39.0521 37.8587 39.739 38.4304 40.3107C39.002 40.8823 39.6884 41.1677 40.4895 41.1667Z" fill="#1A4732"/>
</svg>
