<svg width="60" height="60" viewBox="0 0 60 60" fill="none" xmlns="http://www.w3.org/2000/svg">
<rect width="60" height="60" rx="11" fill="#DEF2E6"/>
<path d="M36.2604 29.9375L30.0625 23.7396C29.9167 23.5938 29.8136 23.4358 29.7533 23.2657C29.6931 23.0955 29.6624 22.9132 29.6615 22.7188C29.6615 22.5243 29.6921 22.3421 29.7533 22.1719C29.8146 22.0018 29.9176 21.8438 30.0625 21.698L36.2604 15.5C36.4062 15.3542 36.5642 15.2512 36.7344 15.1909C36.9045 15.1306 37.0868 15.1 37.2812 15.099C37.4757 15.099 37.658 15.1296 37.8281 15.1909C37.9983 15.2521 38.1563 15.3552 38.3021 15.5L44.5 21.698C44.6458 21.8438 44.7494 22.0018 44.8106 22.1719C44.8719 22.3421 44.902 22.5243 44.901 22.7188C44.901 22.9132 44.8709 23.0955 44.8106 23.2657C44.7503 23.4358 44.6468 23.5938 44.5 23.7396L38.3021 29.9375C38.1563 30.0834 37.9983 30.1869 37.8281 30.2482C37.658 30.3094 37.4757 30.3396 37.2812 30.3386C37.0868 30.3386 36.9045 30.3084 36.7344 30.2482C36.5642 30.1879 36.4062 30.0843 36.2604 29.9375ZM17.375 26.5834V17.8334C17.375 17.4202 17.515 17.0741 17.795 16.795C18.075 16.516 18.4211 16.376 18.8333 16.375H27.5833C27.9965 16.375 28.3431 16.515 28.6231 16.795C28.9031 17.075 29.0426 17.4212 29.0417 17.8334V26.5834C29.0417 26.9966 28.9017 27.3432 28.6217 27.6232C28.3417 27.9032 27.9956 28.0427 27.5833 28.0417H18.8333C18.4201 28.0417 18.074 27.9017 17.795 27.6217C17.516 27.3417 17.376 26.9956 17.375 26.5834ZM31.9583 41.1667V32.4167C31.9583 32.0035 32.0983 31.6574 32.3783 31.3784C32.6583 31.0993 33.0044 30.9593 33.4167 30.9584H42.1667C42.5799 30.9584 42.9265 31.0984 43.2065 31.3784C43.4865 31.6584 43.626 32.0045 43.625 32.4167V41.1667C43.625 41.5799 43.485 41.9265 43.205 42.2065C42.925 42.4865 42.5789 42.626 42.1667 42.625H33.4167C33.0035 42.625 32.6574 42.485 32.3783 42.205C32.0993 41.925 31.9593 41.5789 31.9583 41.1667ZM17.375 41.1667V32.4167C17.375 32.0035 17.515 31.6574 17.795 31.3784C18.075 31.0993 18.4211 30.9593 18.8333 30.9584H27.5833C27.9965 30.9584 28.3431 31.0984 28.6231 31.3784C28.9031 31.6584 29.0426 32.0045 29.0417 32.4167V41.1667C29.0417 41.5799 28.9017 41.9265 28.6217 42.2065C28.3417 42.4865 27.9956 42.626 27.5833 42.625H18.8333C18.4201 42.625 18.074 42.485 17.795 42.205C17.516 41.925 17.376 41.5789 17.375 41.1667ZM20.2917 25.125H26.125V19.2917H20.2917V25.125ZM37.3177 26.875L41.4375 22.7552L37.3177 18.6355L33.1979 22.7552L37.3177 26.875ZM34.875 39.7084H40.7083V33.875H34.875V39.7084ZM20.2917 39.7084H26.125V33.875H20.2917V39.7084Z" fill="#1A4732"/>
</svg>
