<svg width="60" height="60" viewBox="0 0 60 60" fill="none" xmlns="http://www.w3.org/2000/svg">
<rect width="60" height="60" rx="11" fill="#DEF2E6"/>
<path d="M24 30C23.575 30 23.219 30.144 22.932 30.432C22.645 30.72 22.501 31.076 22.5 31.5V36C22.5 36.425 22.644 36.7815 22.932 37.0695C23.22 37.3575 23.576 37.501 24 37.5C24.425 37.5 24.7815 37.356 25.0695 37.068C25.3575 36.78 25.501 36.424 25.5 36V31.5C25.5 31.075 25.356 30.719 25.068 30.432C24.78 30.145 24.424 30.001 24 30ZM36 22.5C35.575 22.5 35.219 22.644 34.932 22.932C34.645 23.22 34.501 23.576 34.5 24V36C34.5 36.425 34.644 36.7815 34.932 37.0695C35.22 37.3575 35.576 37.501 36 37.5C36.425 37.5 36.7815 37.356 37.0695 37.068C37.3575 36.78 37.501 36.424 37.5 36V24C37.5 23.575 37.356 23.219 37.068 22.932C36.78 22.645 36.424 22.501 36 22.5ZM30 33C29.575 33 29.219 33.144 28.932 33.432C28.645 33.72 28.501 34.076 28.5 34.5V36C28.5 36.425 28.644 36.7815 28.932 37.0695C29.22 37.3575 29.576 37.501 30 37.5C30.425 37.5 30.7815 37.356 31.0695 37.068C31.3575 36.78 31.501 36.424 31.5 36V34.5C31.5 34.075 31.356 33.719 31.068 33.432C30.78 33.145 30.424 33.001 30 33ZM19.5 43.5C18.675 43.5 17.969 43.2065 17.382 42.6195C16.795 42.0325 16.501 41.326 16.5 40.5V19.5C16.5 18.675 16.794 17.969 17.382 17.382C17.97 16.795 18.676 16.501 19.5 16.5H40.5C41.325 16.5 42.0315 16.794 42.6195 17.382C43.2075 17.97 43.501 18.676 43.5 19.5V40.5C43.5 41.325 43.2065 42.0315 42.6195 42.6195C42.0325 43.2075 41.326 43.501 40.5 43.5H19.5ZM19.5 40.5H40.5V19.5H19.5V40.5ZM30 30C30.425 30 30.7815 29.856 31.0695 29.568C31.3575 29.28 31.501 28.924 31.5 28.5C31.5 28.075 31.356 27.719 31.068 27.432C30.78 27.145 30.424 27.001 30 27C29.575 27 29.219 27.144 28.932 27.432C28.645 27.72 28.501 28.076 28.5 28.5C28.5 28.925 28.644 29.2815 28.932 29.5695C29.22 29.8575 29.576 30.001 30 30Z" fill="#1A4732"/>
</svg>
