<svg width="43" height="42" viewBox="0 0 43 42" fill="none" xmlns="http://www.w3.org/2000/svg">
<path d="M9.08308 17.255C12.4428 24.5714 18.4126 30.3703 25.8236 33.516L27.0136 34.0463C28.3314 34.6331 29.814 34.7359 31.2002 34.3367C32.5864 33.9375 33.7872 33.0618 34.5911 31.864L36.1468 29.547C36.3903 29.1836 36.4888 28.7423 36.4231 28.3099C36.3573 27.8775 36.132 27.4853 35.7916 27.2108L30.5206 22.9583C30.337 22.8103 30.1254 22.7009 29.8985 22.6367C29.6716 22.5725 29.4341 22.5549 29.2002 22.5848C28.9663 22.6147 28.7409 22.6916 28.5374 22.8108C28.334 22.93 28.1568 23.0891 28.0163 23.2785L26.3853 25.4783C22.1986 23.4105 18.8098 20.0211 16.7428 15.834L18.9408 14.203C19.1303 14.0626 19.2894 13.8853 19.4086 13.6819C19.5278 13.4785 19.6047 13.253 19.6346 13.0191C19.6645 12.7852 19.6468 12.5477 19.5826 12.3208C19.5185 12.0939 19.4091 11.8823 19.2611 11.6988L15.0086 6.42776C14.734 6.08731 14.3419 5.86201 13.9095 5.79626C13.4771 5.73051 13.0357 5.82906 12.6723 6.07251L10.3396 7.63701C9.13453 8.44513 8.25549 9.65479 7.85905 11.0505C7.46261 12.4462 7.57451 13.9374 8.17483 15.2583L9.08308 17.255Z" fill="#58B276"/>
</svg>
