<svg width="42" height="42" viewBox="0 0 42 42" fill="none" xmlns="http://www.w3.org/2000/svg">
<path d="M6.948 8.40002H34.773C37.398 8.40002 38.721 9.63902 38.721 12.159V29.841C38.721 32.34 37.398 33.6 34.773 33.6H6.948C4.323 33.6 3 32.34 3 29.841V12.159C3 9.63902 4.323 8.40002 6.948 8.40002ZM20.85 26.46L35.004 14.847C35.508 14.427 35.907 13.461 35.277 12.6C34.668 11.739 33.555 11.718 32.82 12.243L20.85 20.349L8.901 12.243C8.166 11.718 7.053 11.739 6.444 12.6C5.814 13.461 6.213 14.427 6.717 14.847L20.85 26.46Z" fill="#58B276"/>
</svg>
