<svg width="60" height="60" viewBox="0 0 60 60" fill="none" xmlns="http://www.w3.org/2000/svg">
<rect width="60" height="60" rx="11" fill="#DEF2E6"/>
<path d="M33.7498 45C33.1248 45 32.5938 44.7815 32.1568 44.3445C31.7198 43.9075 31.5008 43.376 31.4998 42.75V35.25C31.4998 34.8 31.6123 34.4 31.8373 34.05C32.0623 33.7 32.3623 33.425 32.7373 33.225L33.7498 35.25H35.9998L34.8748 33H37.1248L38.2498 35.25H40.4998L39.3748 33H41.6248L42.7498 35.25H44.9998L43.8748 33H44.2498C44.8748 33 45.4063 33.2185 45.8443 33.6555C46.2823 34.0925 46.5008 34.624 46.4998 35.25V42.75C46.4998 43.375 46.2813 43.9065 45.8443 44.3445C45.4073 44.7825 44.8758 45.001 44.2498 45H33.7498ZM33.7498 42.75H44.2498V37.5H33.7498V42.75ZM30.0748 24.75C28.6248 24.75 27.3873 25.2625 26.3623 26.2875C25.3373 27.3125 24.8248 28.55 24.8248 30C24.8248 31.2 25.1623 32.25 25.8373 33.15C26.5123 34.05 27.3998 34.675 28.4998 35.025V31.65C28.2998 31.45 28.1373 31.1935 28.0123 30.8805C27.8873 30.5675 27.8248 30.274 27.8248 30C27.8248 29.375 28.0438 28.844 28.4818 28.407C28.9198 27.97 29.4508 27.751 30.0748 27.75C30.6998 27.75 31.2248 27.969 31.6498 28.407C32.0748 28.845 32.2873 29.376 32.2873 30H35.3248C35.3248 28.55 34.8123 27.3125 33.7873 26.2875C32.7623 25.2625 31.5248 24.75 30.0748 24.75ZM25.8748 45L25.2748 40.2C24.9498 40.075 24.6438 39.925 24.3568 39.75C24.0698 39.575 23.7883 39.3875 23.5123 39.1875L19.0498 41.0625L14.9248 33.9375L18.7873 31.0125C18.7623 30.8375 18.7498 30.669 18.7498 30.507V29.4945C18.7498 29.3315 18.7623 29.1625 18.7873 28.9875L14.9248 26.0625L19.0498 18.9375L23.5123 20.8125C23.7873 20.6125 24.0748 20.425 24.3748 20.25C24.6748 20.075 24.9748 19.925 25.2748 19.8L25.8748 15H34.1248L34.7248 19.8C35.0498 19.925 35.3563 20.075 35.6443 20.25C35.9323 20.425 36.2133 20.6125 36.4873 20.8125L40.9498 18.9375L45.0748 26.0625L41.2123 28.9875C41.2373 29.1625 41.2498 29.3315 41.2498 29.4945V30H38.2498C38.2248 29.525 38.1873 29.1065 38.1373 28.7445C38.0873 28.3825 38.0123 28.0385 37.9123 27.7125L41.1373 25.275L39.6748 22.725L35.9623 24.3C35.4123 23.725 34.8058 23.244 34.1428 22.857C33.4798 22.47 32.7613 22.176 31.9873 21.975L31.4998 18H28.5373L28.0123 21.975C27.2373 22.175 26.5188 22.469 25.8568 22.857C25.1948 23.245 24.5883 23.7135 24.0373 24.2625L20.3248 22.725L18.8623 25.275L22.0873 27.675C21.9623 28.05 21.8748 28.425 21.8248 28.8C21.7748 29.175 21.7498 29.575 21.7498 30C21.7498 30.4 21.7748 30.7875 21.8248 31.1625C21.8748 31.5375 21.9623 31.9125 22.0873 32.2875L18.8623 34.725L20.3248 37.275L24.0373 35.7C24.6373 36.325 25.3123 36.85 26.0623 37.275C26.8123 37.7 27.6248 37.975 28.4998 38.1V45H25.8748Z" fill="#1A4732"/>
</svg>
