<svg width="60" height="60" viewBox="0 0 60 60" fill="none" xmlns="http://www.w3.org/2000/svg">
<rect width="60" height="60" rx="11" fill="#DEF2E6"/>
<path d="M31.0875 39.75L34.5 37.6875L37.9125 39.75L37.0125 35.85L40.0125 33.2625L36.075 32.925L34.5 29.25L32.925 32.925L28.9875 33.2625L31.9875 35.85L31.0875 39.75ZM21 33V36H18C17.175 36 16.469 35.7065 15.882 35.1195C15.295 34.5325 15.001 33.826 15 33V18C15 17.175 15.294 16.469 15.882 15.882C16.47 15.295 17.176 15.001 18 15H33C33.825 15 34.5315 15.294 35.1195 15.882C35.7075 16.47 36.001 17.176 36 18V21H33V18H18V33H21ZM27 45C26.175 45 25.469 44.7065 24.882 44.1195C24.295 43.5325 24.001 42.826 24 42V27C24 26.175 24.294 25.469 24.882 24.882C25.47 24.295 26.176 24.001 27 24H42C42.825 24 43.5315 24.294 44.1195 24.882C44.7075 25.47 45.001 26.176 45 27V42C45 42.825 44.7065 43.5315 44.1195 44.1195C43.5325 44.7075 42.826 45.001 42 45H27ZM27 42H42V27H27V42Z" fill="#1A4732"/>
</svg>
