<svg width="60" height="60" viewBox="0 0 60 60" fill="none" xmlns="http://www.w3.org/2000/svg">
<rect width="60" height="60" rx="11" fill="#DEF2E6"/>
<path d="M28.9686 30.5209L26.854 28.4428C26.5866 28.1754 26.2527 28.0417 25.8521 28.0417C25.4516 28.0417 25.105 28.1876 24.8123 28.4792C24.545 28.7466 24.4113 29.0869 24.4113 29.5001C24.4113 29.9133 24.545 30.2535 24.8123 30.5209L27.9478 33.6563C28.2394 33.948 28.5797 34.0938 28.9686 34.0938C29.3575 34.0938 29.6978 33.948 29.9894 33.6563L36.1873 27.4584C36.479 27.1667 36.6185 26.8264 36.6059 26.4376C36.5932 26.0487 36.4537 25.7084 36.1873 25.4167C35.8957 25.1251 35.5496 24.9734 35.149 24.9617C34.7484 24.9501 34.4019 25.0896 34.1092 25.3803L28.9686 30.5209ZM24.8853 43.7188L22.7707 40.1459L18.7603 39.2709C18.3957 39.198 18.104 39.0098 17.8853 38.7065C17.6665 38.4032 17.5814 38.0687 17.63 37.7032L18.0311 33.5834L15.2967 30.448C15.0537 30.1806 14.9321 29.8646 14.9321 29.5001C14.9321 29.1355 15.0537 28.8195 15.2967 28.5521L18.0311 25.4167L17.63 21.2969C17.5814 20.9323 17.6665 20.5979 17.8853 20.2936C18.104 19.9893 18.3957 19.8012 18.7603 19.7292L22.7707 18.8542L24.8853 15.2813C25.0797 14.9653 25.3471 14.7524 25.6873 14.6426C26.0276 14.5327 26.3679 14.5512 26.7082 14.698L30.4998 16.3021L34.2915 14.698C34.6318 14.5521 34.9721 14.5337 35.3123 14.6426C35.6526 14.7514 35.92 14.9644 36.1144 15.2813L38.229 18.8542L42.2394 19.7292C42.604 19.8021 42.8957 19.9908 43.1144 20.2951C43.3332 20.5994 43.4182 20.9333 43.3696 21.2969L42.9686 25.4167L45.703 28.5521C45.946 28.8195 46.0675 29.1355 46.0675 29.5001C46.0675 29.8646 45.946 30.1806 45.703 30.448L42.9686 33.5834L43.3696 37.7032C43.4182 38.0678 43.3332 38.4022 43.1144 38.7065C42.8957 39.0108 42.604 39.1989 42.2394 39.2709L38.229 40.1459L36.1144 43.7188C35.92 44.0348 35.6526 44.2477 35.3123 44.3576C34.9721 44.4674 34.6318 44.4489 34.2915 44.3021L30.4998 42.698L26.7082 44.3021C26.3679 44.448 26.0276 44.4664 25.6873 44.3576C25.3471 44.2487 25.0797 44.0358 24.8853 43.7188ZM26.7811 41.0938L30.4998 39.4896L34.2915 41.0938L36.3332 37.5938L40.3436 36.6459L39.979 32.5626L42.6769 29.5001L39.979 26.3646L40.3436 22.2813L36.3332 21.4063L34.2186 17.9063L30.4998 19.5105L26.7082 17.9063L24.6665 21.4063L20.6561 22.2813L21.0207 26.3646L18.3228 29.5001L21.0207 32.5626L20.6561 36.7188L24.6665 37.5938L26.7811 41.0938Z" fill="#1A4732"/>
</svg>
