<svg width="60" height="60" viewBox="0 0 60 60" fill="none" xmlns="http://www.w3.org/2000/svg">
<rect width="60" height="60" rx="11" fill="#DEF2E6"/>
<path d="M29.0415 32.4166H31.9582C32.3714 32.4166 32.718 32.2766 32.998 31.9966C33.278 31.7166 33.4175 31.3705 33.4165 30.9583C33.4165 30.5451 33.2765 30.199 32.9965 29.92C32.7165 29.6409 32.3704 29.5009 31.9582 29.5H29.0415C28.6283 29.5 28.2822 29.64 28.0032 29.92C27.7241 30.2 27.5841 30.5461 27.5832 30.9583C27.5832 31.3715 27.7232 31.7181 28.0032 31.9981C28.2832 32.2781 28.6293 32.4176 29.0415 32.4166ZM29.0415 28.0416H37.7915C38.2047 28.0416 38.5513 27.9016 38.8313 27.6216C39.1113 27.3416 39.2508 26.9955 39.2498 26.5833C39.2498 26.1701 39.1098 25.824 38.8298 25.545C38.5498 25.2659 38.2037 25.1259 37.7915 25.125H29.0415C28.6283 25.125 28.2822 25.265 28.0032 25.545C27.7241 25.825 27.5841 26.1711 27.5832 26.5833C27.5832 26.9965 27.7232 27.3431 28.0032 27.6231C28.2832 27.9031 28.6293 28.0426 29.0415 28.0416ZM29.0415 23.6666H37.7915C38.2047 23.6666 38.5513 23.5266 38.8313 23.2466C39.1113 22.9666 39.2508 22.6205 39.2498 22.2083C39.2498 21.7951 39.1098 21.449 38.8298 21.17C38.5498 20.8909 38.2037 20.7509 37.7915 20.75H29.0415C28.6283 20.75 28.2822 20.89 28.0032 21.17C27.7241 21.45 27.5841 21.7961 27.5832 22.2083C27.5832 22.6215 27.7232 22.9681 28.0032 23.2481C28.2832 23.5281 28.6293 23.6676 29.0415 23.6666ZM24.6665 38.25C23.8644 38.25 23.178 37.9646 22.6073 37.3939C22.0366 36.8232 21.7508 36.1363 21.7498 35.3333V17.8333C21.7498 17.0312 22.0357 16.3448 22.6073 15.7741C23.179 15.2034 23.8654 14.9176 24.6665 14.9166H42.1665C42.9686 14.9166 43.6555 15.2025 44.2271 15.7741C44.7988 16.3458 45.0841 17.0322 45.0832 17.8333V35.3333C45.0832 36.1354 44.7978 36.8223 44.2271 37.3939C43.6564 37.9656 42.9696 38.2509 42.1665 38.25H24.6665ZM24.6665 35.3333H42.1665V17.8333H24.6665V35.3333ZM18.8332 44.0833C18.0311 44.0833 17.3447 43.7979 16.774 43.2273C16.2033 42.6566 15.9175 41.9697 15.9165 41.1666V22.2083C15.9165 21.7951 16.0565 21.449 16.3365 21.17C16.6165 20.8909 16.9626 20.7509 17.3748 20.75C17.788 20.75 18.1346 20.89 18.4146 21.17C18.6946 21.45 18.8341 21.7961 18.8332 22.2083V41.1666H37.7915C38.2047 41.1666 38.5513 41.3066 38.8313 41.5866C39.1113 41.8666 39.2508 42.2127 39.2498 42.625C39.2498 43.0382 39.1098 43.3848 38.8298 43.6648C38.5498 43.9448 38.2037 44.0843 37.7915 44.0833H18.8332Z" fill="#1A4732"/>
</svg>
