<svg width="60" height="60" viewBox="0 0 60 60" fill="none" xmlns="http://www.w3.org/2000/svg">
<rect width="60" height="60" rx="11" fill="#DEF2E6"/>
<path d="M19.5 18V27.0375V27V42V18ZM24 33H27.75C27.975 32.425 28.25 31.8875 28.575 31.3875C28.9 30.8875 29.275 30.425 29.7 30H24C23.575 30 23.219 30.144 22.932 30.432C22.645 30.72 22.501 31.076 22.5 31.5C22.5 31.925 22.644 32.2815 22.932 32.5695C23.22 32.8575 23.576 33.001 24 33ZM24 39H27.2625C27.1375 38.5 27.0565 38 27.0195 37.5C26.9825 37 26.9885 36.5 27.0375 36H24C23.575 36 23.219 36.144 22.932 36.432C22.645 36.72 22.501 37.076 22.5 37.5C22.5 37.925 22.644 38.2815 22.932 38.5695C23.22 38.8575 23.576 39.001 24 39ZM19.5 45C18.675 45 17.969 44.7065 17.382 44.1195C16.795 43.5325 16.501 42.826 16.5 42V18C16.5 17.175 16.794 16.469 17.382 15.882C17.97 15.295 18.676 15.001 19.5 15H30.2625C30.6625 15 31.044 15.075 31.407 15.225C31.77 15.375 32.0885 15.5875 32.3625 15.8625L39.6375 23.1375C39.9125 23.4125 40.125 23.7315 40.275 24.0945C40.425 24.4575 40.5 24.8385 40.5 25.2375V27.75C40.025 27.55 39.5375 27.394 39.0375 27.282C38.5375 27.17 38.025 27.0885 37.5 27.0375V25.5H31.5C31.075 25.5 30.719 25.356 30.432 25.068C30.145 24.78 30.001 24.424 30 24V18H19.5V42H28.5375C28.9375 42.6 29.3875 43.1565 29.8875 43.6695C30.3875 44.1825 30.9375 44.626 31.5375 45H19.5ZM36.75 40.5C37.8 40.5 38.6875 40.1375 39.4125 39.4125C40.1375 38.6875 40.5 37.8 40.5 36.75C40.5 35.7 40.1375 34.8125 39.4125 34.0875C38.6875 33.3625 37.8 33 36.75 33C35.7 33 34.8125 33.3625 34.0875 34.0875C33.3625 34.8125 33 35.7 33 36.75C33 37.8 33.3625 38.6875 34.0875 39.4125C34.8125 40.1375 35.7 40.5 36.75 40.5ZM45.45 45.45C45.175 45.725 44.825 45.8625 44.4 45.8625C43.975 45.8625 43.625 45.725 43.35 45.45L40.35 42.45C39.825 42.8 39.2565 43.0625 38.6445 43.2375C38.0325 43.4125 37.401 43.5 36.75 43.5C34.875 43.5 33.2815 42.844 31.9695 41.532C30.6575 40.22 30.001 38.626 30 36.75C30 34.875 30.6565 33.2815 31.9695 31.9695C33.2825 30.6575 34.876 30.001 36.75 30C38.625 30 40.219 30.6565 41.532 31.9695C42.845 33.2825 43.501 34.876 43.5 36.75C43.5 37.4 43.4125 38.0315 43.2375 38.6445C43.0625 39.2575 42.8 39.826 42.45 40.35L45.45 43.35C45.725 43.625 45.8625 43.975 45.8625 44.4C45.8625 44.825 45.725 45.175 45.45 45.45Z" fill="#1A4732"/>
</svg>
