<svg width="60" height="60" viewBox="0 0 60 60" fill="none" xmlns="http://www.w3.org/2000/svg">
<rect width="60" height="60" rx="11" fill="#DEF2E6"/>
<path d="M29.0415 41.1667H18.8332C18.0311 41.1667 17.3447 40.8814 16.774 40.3107C16.2033 39.74 15.9175 39.0531 15.9165 38.25V20.75C15.9165 19.948 16.2023 19.2616 16.774 18.6909C17.3457 18.1202 18.0321 17.8343 18.8332 17.8334H42.1665C42.9686 17.8334 43.6555 18.1192 44.2271 18.6909C44.7988 19.2625 45.0841 19.9489 45.0832 20.75V26.5834C45.0832 26.9966 44.9432 27.3432 44.6632 27.6232C44.3832 27.9032 44.0371 28.0427 43.6248 28.0417C43.2116 28.0417 42.8655 27.9017 42.5865 27.6217C42.3075 27.3417 42.1675 26.9956 42.1665 26.5834V20.75H18.8332V38.25H29.0415C29.4547 38.25 29.8013 38.39 30.0813 38.67C30.3613 38.95 30.5008 39.2962 30.4998 39.7084C30.4998 40.1216 30.3598 40.4682 30.0798 40.7482C29.7998 41.0282 29.4537 41.1677 29.0415 41.1667ZM26.854 34.0573V24.9427C26.854 24.5052 27.0426 24.183 27.4198 23.9759C27.7971 23.7688 28.1675 23.7873 28.5311 24.0313L35.6405 28.5886C35.9807 28.8073 36.1509 29.1112 36.1509 29.5C36.1509 29.8889 35.9807 30.1927 35.6405 30.4115L28.5311 34.9688C28.1665 35.2118 27.7956 35.2303 27.4184 35.0242C27.0412 34.8181 26.853 34.4958 26.854 34.0573ZM38.9217 44.9584L38.5936 43.3542C38.3019 43.2327 38.0282 43.1053 37.7725 42.9721C37.5168 42.8389 37.2558 42.6746 36.9894 42.4792L35.4217 42.9532C35.2516 43.0018 35.0936 42.9959 34.9478 42.9357C34.8019 42.8754 34.6804 42.7718 34.5832 42.625L33.7082 41.1667C33.6109 41.0209 33.5866 40.8629 33.6353 40.6927C33.6839 40.5226 33.7689 40.3768 33.8905 40.2552L35.0936 39.198C35.045 38.8577 35.0207 38.5417 35.0207 38.25C35.0207 37.9584 35.045 37.6424 35.0936 37.3021L33.8905 36.2448C33.7689 36.1233 33.6839 35.9775 33.6353 35.8073C33.5866 35.6372 33.6109 35.4792 33.7082 35.3334L34.5832 33.875C34.6804 33.7292 34.8019 33.6262 34.9478 33.5659C35.0936 33.5056 35.2516 33.4993 35.4217 33.5469L36.9894 34.0209C37.2568 33.8264 37.5183 33.6626 37.774 33.5294C38.0297 33.3962 38.3029 33.2684 38.5936 33.1459L38.9217 31.5417C38.9703 31.3716 39.0496 31.2316 39.1594 31.1217C39.2693 31.0118 39.4209 30.9574 39.6144 30.9584H41.3644C41.5589 30.9584 41.711 31.0133 41.8209 31.1232C41.9307 31.233 42.0095 31.3725 42.0571 31.5417L42.3853 33.1459C42.6769 33.2674 42.9506 33.4011 43.2063 33.5469C43.462 33.6927 43.723 33.875 43.9894 34.0938L45.5207 33.5469C45.6908 33.4983 45.8551 33.5046 46.0136 33.5659C46.1721 33.6271 46.2994 33.7302 46.3957 33.875L47.2707 35.4063C47.3679 35.5521 47.3985 35.7101 47.3625 35.8802C47.3266 36.0504 47.2473 36.1962 47.1248 36.3177L45.8853 37.375C45.9339 37.6667 45.9582 37.9705 45.9582 38.2865C45.9582 38.6025 45.9339 38.9063 45.8853 39.198L47.0884 40.2552C47.2099 40.3768 47.295 40.5226 47.3436 40.6927C47.3922 40.8629 47.3679 41.0209 47.2707 41.1667L46.3957 42.625C46.2984 42.7709 46.1769 42.8744 46.0311 42.9357C45.8853 42.9969 45.7273 43.0028 45.5571 42.9532L43.9894 42.4792C43.7221 42.6737 43.461 42.838 43.2063 42.9721C42.9516 43.1063 42.6779 43.2337 42.3853 43.3542L42.0571 44.9584C42.0085 45.1285 41.9298 45.2685 41.8209 45.3784C41.712 45.4882 41.5598 45.5427 41.3644 45.5417H39.6144C39.42 45.5417 39.2683 45.4873 39.1594 45.3784C39.0505 45.2695 38.9713 45.1295 38.9217 44.9584ZM40.4894 41.1667C41.2915 41.1667 41.9784 40.8814 42.55 40.3107C43.1217 39.74 43.4071 39.0531 43.4061 38.25C43.4061 37.448 43.1207 36.7616 42.55 36.1909C41.9794 35.6202 41.2925 35.3343 40.4894 35.3334C39.6873 35.3334 39.0009 35.6192 38.4303 36.1909C37.8596 36.7625 37.5737 37.4489 37.5728 38.25C37.5728 39.0521 37.8586 39.739 38.4303 40.3107C39.0019 40.8823 39.6883 41.1677 40.4894 41.1667Z" fill="#1A4732"/>
</svg>
