<svg width="18" height="18" viewBox="0 0 18 18" fill="none" xmlns="http://www.w3.org/2000/svg">
<path d="M9 2.25C7.66498 2.25 6.35994 2.64588 5.2499 3.38758C4.13987 4.12928 3.27471 5.18349 2.76382 6.41689C2.25292 7.65029 2.11925 9.00749 2.3797 10.3169C2.64015 11.6262 3.28303 12.829 4.22703 13.773C5.17104 14.717 6.37377 15.3598 7.68314 15.6203C8.99251 15.8807 10.3497 15.7471 11.5831 15.2362C12.8165 14.7253 13.8707 13.8601 14.6124 12.7501C15.3541 11.6401 15.75 10.335 15.75 9C15.75 7.20979 15.0388 5.4929 13.773 4.22703C12.5071 2.96116 10.7902 2.25 9 2.25V2.25Z" fill="#1A4732"/>
<path d="M12.4741 7.83609L8.95812 11.4031C8.78699 11.5682 8.55844 11.6605 8.32062 11.6605C8.08279 11.6605 7.85424 11.5682 7.68312 11.4031L5.60412 9.27909C4.79112 8.45109 6.06312 7.17909 6.87612 8.00709L8.32212 9.48309L11.2021 6.56109C12.0181 5.73609 13.2901 7.00809 12.4741 7.83609Z" fill="white"/>
</svg>
