<svg width="42" height="42" viewBox="0 0 42 42" fill="none" xmlns="http://www.w3.org/2000/svg">
<circle cx="21" cy="21" r="21" fill="#1A4732"/>
<path d="M12.4988 15.4375C12.4988 14.5259 12.861 13.6515 13.5056 13.0068C14.1503 12.3622 15.0246 12 15.9363 12H26.5615C27.4732 12 28.3475 12.3622 28.9922 13.0068C29.6369 13.6515 29.999 14.5259 29.999 15.4375V26.0627C29.999 26.9744 29.6369 27.8487 28.9922 28.4934C28.3475 29.1381 27.4732 29.5002 26.5615 29.5002H21.4002L19.4501 27.5502C19.7218 26.9834 19.8959 26.3749 19.9651 25.7502H25.624C25.7897 25.7502 25.9487 25.6843 26.0659 25.5671C26.1831 25.4499 26.249 25.2909 26.249 25.1252C26.249 24.9594 26.1831 24.8004 26.0659 24.6832C25.9487 24.566 25.7897 24.5002 25.624 24.5002H19.9651C19.8713 23.6581 19.5885 22.8482 19.1377 22.1308C18.687 21.4133 18.0801 20.807 17.3622 20.357C16.6443 19.907 15.8341 19.625 14.9919 19.5321C14.1498 19.4391 13.2975 19.5376 12.4988 19.8201V15.4375ZM17.1863 18.2501C17.435 18.2501 17.6735 18.1513 17.8493 17.9755C18.0251 17.7997 18.1239 17.5612 18.1239 17.3126C18.1239 17.0639 18.0251 16.8255 17.8493 16.6497C17.6735 16.4738 17.435 16.3751 17.1863 16.3751C16.9377 16.3751 16.6992 16.4738 16.5234 16.6497C16.3476 16.8255 16.2488 17.0639 16.2488 17.3126C16.2488 17.5612 16.3476 17.7997 16.5234 17.9755C16.6992 18.1513 16.9377 18.2501 17.1863 18.2501ZM19.9989 17.6251C19.9989 17.7908 20.0647 17.9498 20.1819 18.067C20.2992 18.1842 20.4581 18.2501 20.6239 18.2501H25.624C25.7897 18.2501 25.9487 18.1842 26.0659 18.067C26.1831 17.9498 26.249 17.7908 26.249 17.6251C26.249 17.4593 26.1831 17.3003 26.0659 17.1831C25.9487 17.0659 25.7897 17.0001 25.624 17.0001H20.6239C20.4581 17.0001 20.2992 17.0659 20.1819 17.1831C20.0647 17.3003 19.9989 17.4593 19.9989 17.6251ZM20.6239 20.7501C20.4581 20.7501 20.2992 20.816 20.1819 20.9332C20.0647 21.0504 19.9989 21.2094 19.9989 21.3751C19.9989 21.5409 20.0647 21.6999 20.1819 21.8171C20.2992 21.9343 20.4581 22.0001 20.6239 22.0001H25.624C25.7897 22.0001 25.9487 21.9343 26.0659 21.8171C26.1831 21.6999 26.249 21.5409 26.249 21.3751C26.249 21.2094 26.1831 21.0504 26.0659 20.9332C25.9487 20.816 25.7897 20.7501 25.624 20.7501H20.6239ZM14.3738 29.5002C15.3563 29.5002 16.2638 29.1752 16.9938 28.629L20.1814 31.8165C20.2394 31.8746 20.3083 31.9207 20.3842 31.9522C20.46 31.9837 20.5413 31.9999 20.6235 32C20.7056 32.0001 20.7869 31.9839 20.8628 31.9526C20.9387 31.9212 21.0077 31.8752 21.0658 31.8172C21.1239 31.7591 21.17 31.6902 21.2015 31.6144C21.233 31.5385 21.2492 31.4572 21.2493 31.3751C21.2493 31.293 21.2332 31.2116 21.2018 31.1357C21.1704 31.0598 21.1244 30.9909 21.0664 30.9328L17.8789 27.7452C18.4689 26.9562 18.7753 25.9911 18.7485 25.0062C18.7217 24.0213 18.3633 23.0743 17.7312 22.3185C17.0992 21.5627 16.2305 21.0424 15.2659 20.8418C14.3013 20.6412 13.2972 20.772 12.4162 21.2131C11.5353 21.6542 10.829 22.3798 10.4117 23.2723C9.99446 24.1649 9.89068 25.1721 10.1172 26.131C10.3437 27.0898 10.8872 27.9442 11.6597 28.5556C12.4323 29.1671 13.3886 29.5 14.3738 29.5002ZM14.3738 28.2502C13.545 28.2502 12.7501 27.921 12.1641 27.3349C11.578 26.7489 11.2488 25.954 11.2488 25.1252C11.2488 24.2964 11.578 23.5015 12.1641 22.9154C12.7501 22.3294 13.545 22.0001 14.3738 22.0001C15.2026 22.0001 15.9975 22.3294 16.5835 22.9154C17.1696 23.5015 17.4989 24.2964 17.4989 25.1252C17.4989 25.954 17.1696 26.7489 16.5835 27.3349C15.9975 27.921 15.2026 28.2502 14.3738 28.2502Z" fill="white"/>
</svg>
