<svg width="42" height="42" viewBox="0 0 42 42" fill="none" xmlns="http://www.w3.org/2000/svg">
<circle cx="21" cy="21" r="21" fill="#1A4732"/>
<path d="M23.9229 12.0065C24.0782 12.0065 24.2282 12.0628 24.3452 12.1649C24.4623 12.2669 24.5384 12.4079 24.5595 12.5618L24.5655 12.6492L24.5647 13.2909H25.2073C25.7186 13.2909 26.2089 13.494 26.5705 13.8556C26.932 14.2171 27.1352 14.7075 27.1352 15.2188V20.0059C26.494 19.7012 25.7655 19.6338 25.0794 19.8157C24.3932 19.9976 23.7938 20.417 23.3878 20.9993C22.9818 21.5816 22.7955 22.2891 22.8621 22.9958C22.9287 23.7026 23.2439 24.3628 23.7515 24.859H23.5133C23.2014 24.859 22.8926 24.9204 22.6044 25.0398C22.3162 25.1592 22.0544 25.3341 21.8338 25.5547C21.6133 25.7752 21.4383 26.0371 21.319 26.3252C21.1996 26.6134 21.1382 26.9222 21.1382 27.2341V27.3224C21.1382 27.9573 21.3224 28.5931 21.7106 29.1475H14.9287C14.4174 29.1475 13.9271 28.9443 13.5655 28.5828C13.204 28.2212 13.0009 27.7309 13.0009 27.2196L13 15.2197C13 14.7084 13.2031 14.218 13.5647 13.8564C13.9262 13.4949 14.4166 13.2918 14.9279 13.2918L15.5679 13.2909V12.6492C15.5663 12.4852 15.6273 12.3268 15.7387 12.2064C15.85 12.086 16.0031 12.0127 16.1667 12.0015C16.3303 11.9903 16.492 12.0421 16.6187 12.1463C16.7453 12.2504 16.8274 12.3991 16.848 12.5618L16.854 12.6492L16.8532 13.2909H19.4245V12.6492C19.4229 12.4852 19.4839 12.3268 19.5953 12.2064C19.7066 12.086 19.8597 12.0127 20.0233 12.0015C20.1869 11.9903 20.3486 12.0421 20.4753 12.1463C20.6019 12.2504 20.684 12.3991 20.7046 12.5618L20.7106 12.6492L20.7098 13.2909H23.2786V12.6492C23.2786 12.4787 23.3463 12.3153 23.4668 12.1948C23.5873 12.0742 23.7507 12.0065 23.9212 12.0065M19.6353 24.0022H16.2114L16.124 24.0082C15.9702 24.0293 15.8292 24.1055 15.7272 24.2225C15.6252 24.3395 15.569 24.4895 15.569 24.6448C15.569 24.8001 15.6252 24.9501 15.7272 25.0671C15.8292 25.1841 15.9702 25.2603 16.124 25.2814L16.2114 25.2874H19.637L19.7244 25.2814C19.8782 25.2603 20.0192 25.1841 20.1212 25.0671C20.2232 24.9501 20.2794 24.8001 20.2794 24.6448C20.2794 24.4895 20.2232 24.3395 20.1212 24.2225C20.0192 24.1055 19.8782 24.0293 19.7244 24.0082L19.6353 24.0022ZM23.9195 17.1475H16.2114L16.124 17.1535C15.9702 17.1747 15.8292 17.2508 15.7272 17.3678C15.6252 17.4849 15.569 17.6349 15.569 17.7901C15.569 17.9454 15.6252 18.0954 15.7272 18.2125C15.8292 18.3295 15.9702 18.4056 16.124 18.4268L16.2114 18.4328H23.9212L24.0086 18.4268C24.1624 18.4056 24.3033 18.3295 24.4054 18.2125C24.5074 18.0954 24.5636 17.9454 24.5636 17.7901C24.5636 17.6349 24.5074 17.4849 24.4054 17.3678C24.3033 17.2508 24.1624 17.1747 24.0086 17.1535L23.9195 17.1475ZM15.5688 21.2175C15.5688 21.5722 15.8567 21.8601 16.2114 21.8601H21.3524C21.5228 21.8601 21.6863 21.7924 21.8068 21.6719C21.9273 21.5514 21.995 21.3879 21.995 21.2175C21.995 21.047 21.9273 20.8836 21.8068 20.7631C21.6863 20.6426 21.5228 20.5749 21.3524 20.5749H16.2114C16.041 20.5749 15.8775 20.6426 15.757 20.7631C15.6365 20.8836 15.5688 21.047 15.5688 21.2175ZM27.9928 22.7169C27.9928 23.285 27.7672 23.8299 27.3654 24.2316C26.9637 24.6333 26.4189 24.859 25.8508 24.859C25.2826 24.859 24.7378 24.6333 24.3361 24.2316C23.9344 23.8299 23.7087 23.285 23.7087 22.7169C23.7087 22.1488 23.9344 21.604 24.3361 21.2023C24.7378 20.8005 25.2826 20.5749 25.8508 20.5749C26.4189 20.5749 26.9637 20.8005 27.3654 21.2023C27.7672 21.604 27.9928 22.1488 27.9928 22.7169ZM29.7065 27.3224C29.7065 28.6556 28.6046 30 25.8508 30C23.0969 30 21.995 28.6608 21.995 27.3224V27.2341C21.995 26.3945 22.6753 25.7158 23.5142 25.7158H28.1873C29.027 25.7158 29.7065 26.3953 29.7065 27.2341V27.3224Z" fill="white"/>
</svg>
