<svg width="100" height="44" viewBox="0 0 100 44" fill="none" xmlns="http://www.w3.org/2000/svg">
<path d="M22.9775 20.8555C22.9775 22.7963 22.6122 24.4763 21.8818 25.8955C21.1722 27.2937 20.2227 28.452 19.0331 29.3703C17.8644 30.2677 16.5392 30.9355 15.0575 31.3737C13.5757 31.7911 12.0731 31.9998 10.5496 31.9998H2.28528V9.83635H10.2992C11.8644 9.83635 13.4088 10.0242 14.9322 10.3998C16.4557 10.7546 17.8122 11.3598 19.0018 12.2155C20.1914 13.0503 21.1514 14.1772 21.8818 15.5963C22.6122 17.0155 22.9775 18.7685 22.9775 20.8555ZM17.4053 20.8555C17.4053 19.6033 17.1966 18.5703 16.7792 17.7563C16.3827 16.9216 15.8401 16.2642 15.1514 15.7842C14.4835 15.2833 13.7114 14.9285 12.8348 14.7198C11.9792 14.5111 11.0922 14.4068 10.174 14.4068H7.5131V27.3668H10.0488C11.0088 27.3668 11.927 27.2624 12.8035 27.0537C13.7009 26.8242 14.4835 26.459 15.1514 25.9581C15.8401 25.4572 16.3827 24.7894 16.7792 23.9546C17.1966 23.1198 17.4053 22.0868 17.4053 20.8555ZM36.9835 22.4207C36.9835 21.6068 36.7226 20.9077 36.2008 20.3233C35.7 19.739 34.9382 19.4468 33.9156 19.4468C33.4148 19.4468 32.9556 19.5303 32.5382 19.6972C32.1208 19.8433 31.7556 20.052 31.4426 20.3233C31.1295 20.5946 30.8791 20.9181 30.6913 21.2937C30.5035 21.6485 30.3991 22.0242 30.3782 22.4207H36.9835ZM41.7104 24.3929C41.7104 24.6016 41.7104 24.8103 41.7104 25.019C41.7104 25.2277 41.7 25.4259 41.6791 25.6137H30.3782C30.42 26.052 30.5452 26.4485 30.7539 26.8033C30.9835 27.1581 31.2652 27.4711 31.5991 27.7424C31.9539 27.9929 32.34 28.1911 32.7574 28.3372C33.1956 28.4833 33.6443 28.5563 34.1035 28.5563C34.9174 28.5563 35.6061 28.4103 36.1695 28.1181C36.733 27.805 37.1922 27.4085 37.5469 26.9285L41.1156 29.1824C40.3852 30.2468 39.4148 31.0711 38.2043 31.6555C37.0148 32.219 35.6269 32.5007 34.0408 32.5007C32.8722 32.5007 31.7661 32.3233 30.7226 31.9685C29.6791 31.5929 28.7608 31.0607 27.9678 30.372C27.1956 29.6624 26.58 28.7963 26.1208 27.7737C25.6826 26.7511 25.4635 25.5824 25.4635 24.2677C25.4635 22.9946 25.6826 21.8468 26.1208 20.8242C26.5591 19.7807 27.1539 18.9042 27.9052 18.1946C28.6565 17.4642 29.5435 16.9007 30.5661 16.5042C31.5887 16.1077 32.6948 15.9094 33.8843 15.9094C35.0322 15.9094 36.0861 16.1077 37.0461 16.5042C38.0061 16.8798 38.8304 17.4329 39.5191 18.1633C40.2078 18.8937 40.74 19.7807 41.1156 20.8242C41.5122 21.8677 41.7104 23.0572 41.7104 24.3929ZM44.9568 31.9998V8.33374H50.1533V31.9998H44.9568ZM63.86 31.9998H58.3191L52.1835 16.4103H57.8495L61.1365 26.5216H61.2304L64.5174 16.4103H69.9956L63.86 31.9998ZM77.552 11.4329C77.552 11.8294 77.4685 12.205 77.3015 12.5598C77.1555 12.8937 76.9468 13.1859 76.6755 13.4363C76.425 13.6868 76.112 13.885 75.7363 14.0311C75.3815 14.1772 75.0059 14.2503 74.6094 14.2503C73.7746 14.2503 73.0755 13.979 72.512 13.4363C71.9485 12.8729 71.6668 12.205 71.6668 11.4329C71.6668 11.0572 71.7398 10.7024 71.8859 10.3685C72.032 10.0137 72.2407 9.71113 72.512 9.4607C72.7833 9.21026 73.0963 9.012 73.4511 8.86591C73.8059 8.69896 74.192 8.61548 74.6094 8.61548C75.0059 8.61548 75.3815 8.68852 75.7363 8.83461C76.112 8.9807 76.425 9.17896 76.6755 9.42939C76.9468 9.67983 77.1555 9.98244 77.3015 10.3372C77.4685 10.6711 77.552 11.0363 77.552 11.4329ZM72.0424 31.9998V16.4103H77.1763V31.9998H72.0424Z" fill="#1A4732"/>
<path d="M94.0748 19.7472L97.9875 15.0843C98.9136 13.9806 98.7696 12.3352 97.6659 11.4091C96.5623 10.483 94.9168 10.627 93.9907 11.7306L90.0781 16.3935C89.152 17.4972 89.296 19.1426 90.3996 20.0687C91.5033 20.9948 93.1488 20.8509 94.0748 19.7472Z" fill="#F97D36" fill-opacity="0.976471"/>
<path d="M96.793 24.1425C96.793 25.4155 96.5634 26.5738 96.1043 27.6172C95.6452 28.6399 95.0191 29.5164 94.226 30.2468C93.433 30.9564 92.5147 31.5094 91.4713 31.9059C90.4278 32.3025 89.3113 32.5007 88.1217 32.5007C86.953 32.5007 85.8365 32.3025 84.7721 31.9059C83.7286 31.5094 82.8104 30.9564 82.0173 30.2468C81.2452 29.5164 80.6295 28.6399 80.1704 27.6172C79.7113 26.5738 79.4817 25.4155 79.4817 24.1425C79.4817 22.8694 79.7113 21.7216 80.1704 20.699C80.6295 19.6764 81.2452 18.8103 82.0173 18.1007C82.8104 17.3912 83.7286 16.8486 84.7721 16.4729C85.8365 16.0972 86.953 15.9094 88.1217 15.9094C89.3113 15.9094 90.4278 16.0972 91.4713 16.4729C92.5147 16.8486 93.433 17.3912 94.226 18.1007C95.0191 18.8103 95.6452 19.6764 96.1043 20.699C96.5634 21.7216 96.793 22.8694 96.793 24.1425ZM91.8469 24.1425C91.8469 23.6416 91.7634 23.1512 91.5965 22.6712C91.4295 22.1912 91.1895 21.7738 90.8765 21.419C90.5634 21.0433 90.1773 20.7407 89.7182 20.5112C89.2591 20.2816 88.7269 20.1668 88.1217 20.1668C87.5165 20.1668 86.9843 20.2816 86.5252 20.5112C86.066 20.7407 85.6799 21.0433 85.3669 21.419C85.0747 21.7738 84.8452 22.1912 84.6782 22.6712C84.5321 23.1512 84.4591 23.6416 84.4591 24.1425C84.4591 24.6433 84.5321 25.1338 84.6782 25.6138C84.8452 26.0938 85.0852 26.532 85.3982 26.9286C85.7113 27.3042 86.0973 27.6068 86.5565 27.8364C87.0156 28.0659 87.5478 28.1807 88.153 28.1807C88.7582 28.1807 89.2904 28.0659 89.7495 27.8364C90.2086 27.6068 90.5947 27.3042 90.9078 26.9286C91.2208 26.532 91.4504 26.0938 91.5965 25.6138C91.7634 25.1338 91.8469 24.6433 91.8469 24.1425Z" fill="#1A4732"/>
</svg>
