<svg width="22" height="22" viewBox="0 0 22 22" fill="none" xmlns="http://www.w3.org/2000/svg">
<path d="M11 21.0834C16.5689 21.0834 21.0834 16.569 21.0834 11.0001C21.0834 5.43121 16.5689 0.916748 11 0.916748C5.43115 0.916748 0.916687 5.43121 0.916687 11.0001C0.916687 16.569 5.43115 21.0834 11 21.0834Z" fill="white"/>
<mask id="mask0_61_2132" style="mask-type:luminance" maskUnits="userSpaceOnUse" x="0" y="0" width="22" height="22">
<path d="M11 21.0834C16.5689 21.0834 21.0834 16.569 21.0834 11.0001C21.0834 5.43121 16.5689 0.916748 11 0.916748C5.43115 0.916748 0.916687 5.43121 0.916687 11.0001C0.916687 16.569 5.43115 21.0834 11 21.0834Z" fill="white"/>
</mask>
<g mask="url(#mask0_61_2132)">
<path d="M7.17265 6.59418V0.857666H-3.65338L7.17265 6.59418Z" fill="#012169"/>
<path d="M4.53445 7.5647H1.59556L-8.16882 2.43418V0.857666L4.53445 7.5647Z" fill="#C8102E"/>
<path d="M14.8866 15.397V21.1335H25.7126L14.8866 15.397Z" fill="#012169"/>
<path d="M17.5248 14.4265H20.4637L30.2236 19.557V21.1335L17.5248 14.4265Z" fill="#C8102E"/>
<path d="M14.8866 6.59418V0.857666H25.7126L14.8866 6.59418Z" fill="#012169"/>
<path d="M14.8866 7.5647H17.8255L30.5105 0.857666H27.5853L14.8866 7.5647Z" fill="#C8102E"/>
<path d="M7.17265 15.406V21.1425H-3.65338L7.17265 15.406Z" fill="#012169"/>
<path d="M7.17269 14.4358H4.23381L-8.45123 21.1428H-5.53057L7.17269 14.4358Z" fill="#C8102E"/>
<path d="M13.2692 0.857666H8.6991V21.0927H13.2692V0.857666Z" fill="#C8102E"/>
<path d="M-8.22803 8.86768V13.0732L30.1871 13.0732V8.86768L-8.22803 8.86768Z" fill="#C8102E"/>
</g>
</svg>
