<svg width="22" height="22" viewBox="0 0 22 22" fill="none" xmlns="http://www.w3.org/2000/svg">
<mask id="mask0_61_1993" style="mask-type:luminance" maskUnits="userSpaceOnUse" x="0" y="0" width="22" height="22">
<path d="M11 21.0834C16.5689 21.0834 21.0834 16.569 21.0834 11.0001C21.0834 5.43121 16.5689 0.916748 11 0.916748C5.43115 0.916748 0.916687 5.43121 0.916687 11.0001C0.916687 16.569 5.43115 21.0834 11 21.0834Z" fill="white"/>
</mask>
<g mask="url(#mask0_61_1993)">
<path d="M29.6449 0.306152H-7.64479C-8.54315 0.306152 -9.27142 1.03442 -9.27142 1.93279V20.0719C-9.27142 20.9702 -8.54315 21.6985 -7.64479 21.6985H29.6449C30.5432 21.6985 31.2715 20.9702 31.2715 20.0719V1.93279C31.2715 1.03442 30.5432 0.306152 29.6449 0.306152Z" fill="white"/>
<path d="M-7.64928 0.30607H29.6495C30.5471 0.30607 31.2761 1.0351 31.2761 1.93271V10.9908H-9.27136V1.92815C-9.27136 1.03054 -8.54234 0.301514 -7.64472 0.301514L-7.64928 0.30607Z" fill="#FF0000"/>
</g>
</svg>
